<svg width="36" height="36" viewBox="0 0 36 36" fill="none" xmlns="http://www.w3.org/2000/svg">
<path opacity="0.5" d="M3 18.3059C3 14.8732 3 13.1569 3.7788 11.7341C4.5576 10.3113 5.98042 9.42827 8.82605 7.66219L11.826 5.80031C14.8341 3.93344 16.3381 3 18 3C19.6619 3 21.1659 3.93343 24.1739 5.8003L27.1739 7.66219C30.0196 9.42827 31.4424 10.3113 32.2212 11.7341C33 13.1569 33 14.8732 33 18.3059V20.5874C33 26.4388 33 29.3644 31.2426 31.1822C29.4853 33 26.6569 33 21 33H15C9.34315 33 6.51472 33 4.75736 31.1822C3 29.3644 3 26.4388 3 20.5874V18.3059Z" fill="#FF9A79"/>
<path d="M14.17 23.0963C13.6708 22.7263 12.9663 22.831 12.5963 23.3302C12.2263 23.8293 12.331 24.5339 12.8302 24.9039C14.2888 25.985 16.0726 26.6251 18.0001 26.6251C19.9275 26.6251 21.7114 25.985 23.17 24.9039C23.6691 24.5339 23.7738 23.8293 23.4039 23.3302C23.0339 22.831 22.3293 22.7263 21.8302 23.0963C20.7376 23.9061 19.4189 24.3751 18.0001 24.3751C16.5812 24.3751 15.2625 23.9061 14.17 23.0963Z" fill="#F77246"/>
</svg>
