<svg width="21" height="21" viewBox="0 0 21 21" fill="none" xmlns="http://www.w3.org/2000/svg">
<g clip-path="url(#clip0_3_111)">
<path d="M16.4869 16.4871L13.4108 13.4055M15.1155 9.28705C15.1155 10.8329 14.5014 12.3154 13.4084 13.4085C12.3153 14.5015 10.8328 15.1156 9.28695 15.1156C7.74111 15.1156 6.25859 14.5015 5.16552 13.4085C4.07245 12.3154 3.45837 10.8329 3.45837 9.28705C3.45837 7.74122 4.07245 6.2587 5.16552 5.16563C6.25859 4.07256 7.74111 3.45848 9.28695 3.45848C10.8328 3.45848 12.3153 4.07256 13.4084 5.16563C14.5014 6.2587 15.1155 7.74122 15.1155 9.28705Z" stroke="#C5C8CE" stroke-width="1.37143" stroke-linecap="round"/>
<path d="M15.1155 9.28705C15.1155 10.8329 14.5014 12.3154 13.4084 13.4085C12.3153 14.5015 10.8328 15.1156 9.28695 15.1156C7.74111 15.1156 6.25859 14.5015 5.16552 13.4085C4.07245 12.3154 3.45837 10.8329 3.45837 9.28705C3.45837 7.74122 4.07245 6.2587 5.16552 5.16563C6.25859 4.07256 7.74111 3.45848 9.28695 3.45848C10.8328 3.45848 12.3153 4.07256 13.4084 5.16563C14.5014 6.2587 15.1155 7.74122 15.1155 9.28705Z" stroke="#4D4D4D" stroke-width="1.37143" stroke-linecap="round"/>
</g>
<defs>
<clipPath id="clip0_3_111">
<rect width="16.4571" height="16.4571" fill="white" transform="translate(2.08691 2.08698)"/>
</clipPath>
</defs>
</svg>
